<svg width="80" height="80" viewBox="0 0 80 80" fill="none" xmlns="http://www.w3.org/2000/svg">
<path d="M40 0L65.7115 9.35822L79.3923 33.0541L74.641 60L53.6808 77.5877H26.3192L5.35898 60L0.607689 33.0541L14.2885 9.35822L40 0Z" fill="#5BAA60"/>
<path d="M20.379 52.0335C20.5783 51.9575 20.7572 51.9549 20.9155 52.0258C21.0769 52.0898 21.1928 52.214 21.2631 52.3984L21.6851 53.5047L14.2701 56.3329L14.0363 55.72C13.9888 55.5954 13.9643 55.4563 13.9628 55.3028C13.9644 55.1423 14.0016 54.9854 14.0744 54.8321L16.1014 50.2916C16.269 49.908 16.4115 49.5483 16.5288 49.2124C16.6512 48.8746 16.7371 48.5536 16.7865 48.2493C16.836 47.9451 16.8497 47.6516 16.8275 47.369C16.8084 47.0794 16.7447 46.7926 16.6363 46.5086C16.5375 46.2495 16.4136 46.037 16.2648 45.8712C16.114 45.7003 15.9432 45.5743 15.7523 45.4929C15.5665 45.4097 15.364 45.3728 15.1449 45.3821C14.929 45.3846 14.7014 45.4314 14.4622 45.5227C14.2429 45.6063 14.051 45.7166 13.8863 45.8536C13.7248 45.9837 13.5936 46.1337 13.4928 46.3034C13.3901 46.4681 13.3174 46.6443 13.2748 46.8318C13.2321 47.0193 13.2201 47.2122 13.2387 47.4106C13.2414 47.6722 13.1898 47.866 13.0837 47.9921C12.9777 48.1181 12.79 48.2097 12.5207 48.2668L11.4834 48.4655C11.3605 47.9187 11.332 47.4101 11.398 46.9397C11.4621 46.4643 11.6043 46.0362 11.8243 45.6555C12.0475 45.2678 12.3412 44.9303 12.7054 44.643C13.0726 44.3488 13.4955 44.1105 13.9738 43.928C14.4722 43.7379 14.9566 43.6388 15.4272 43.6305C15.896 43.6173 16.3287 43.6891 16.7253 43.8461C17.1219 44.003 17.4747 44.2395 17.7836 44.5555C18.0925 44.8715 18.3353 45.2612 18.5121 45.7246C18.6641 46.1233 18.745 46.5148 18.7547 46.8993C18.7693 47.2819 18.7359 47.6657 18.6544 48.0506C18.5779 48.4337 18.4627 48.8201 18.3088 49.2099C18.155 49.5997 17.9905 49.9992 17.8155 50.4084L16.3282 53.8269C16.5358 53.6678 16.7475 53.5271 16.9635 53.4048C17.1825 53.2756 17.3966 53.1711 17.6059 53.0913L20.379 52.0335ZM23.0818 45.0862C23.302 44.9451 23.518 44.8228 23.7296 44.7192C23.9394 44.6107 24.1464 44.5174 24.3507 44.4395C24.9188 44.2228 25.4519 44.1165 25.9501 44.1206C26.4482 44.1247 26.9013 44.2201 27.3094 44.407C27.7174 44.5938 28.0732 44.8605 28.3766 45.2072C28.6782 45.5488 28.9173 45.9513 29.0941 46.4148C29.3127 46.9878 29.4101 47.55 29.3863 48.1013C29.3676 48.6508 29.2434 49.1633 29.0139 49.639C28.7824 50.1098 28.4552 50.5314 28.0322 50.9039C27.6142 51.2746 27.1161 51.5701 26.5381 51.7906C26.1992 51.9199 25.8645 52.0076 25.5339 52.0538C25.2034 52.0999 24.8817 52.117 24.5689 52.1051C24.2591 52.0862 23.9612 52.0457 23.6749 51.9837C23.3917 51.9147 23.1282 51.8298 22.8841 51.7288L23.1529 50.7272C23.2078 50.5122 23.3325 50.3676 23.5268 50.2935C23.6514 50.246 23.7937 50.2374 23.9537 50.2677C24.1136 50.298 24.2939 50.3291 24.4945 50.3611C24.7 50.3911 24.9301 50.4033 25.1847 50.3975C25.4444 50.3898 25.7337 50.3251 26.0526 50.2034C26.3914 50.0742 26.6695 49.9053 26.8868 49.6969C27.1041 49.4884 27.2604 49.2547 27.3557 48.9957C27.4541 48.7299 27.4944 48.4462 27.4764 48.1448C27.4616 47.8366 27.3934 47.523 27.2717 47.204C27.0474 46.616 26.7006 46.2231 26.2314 46.0254C25.7652 45.8208 25.1982 45.8458 24.5304 46.1005C24.0172 46.2963 23.5276 46.5915 23.0616 46.9861L21.7851 47.0963L20.6806 41.5069L26.0176 39.4713L26.3169 40.2561C26.4177 40.5202 26.4172 40.7659 26.3155 40.993C26.2137 41.2202 25.966 41.4088 25.5724 41.559L22.6049 42.6909L23.0818 45.0862ZM34.0877 39.3899C34.2436 39.7985 34.3144 40.1939 34.3004 40.576C34.2913 40.9562 34.2168 41.3071 34.0769 41.6288C33.9351 41.9454 33.736 42.224 33.4795 42.4645C33.223 42.7051 32.9304 42.888 32.6015 43.0135C32.2427 43.1503 31.8876 43.2144 31.5361 43.2058C31.1846 43.1972 30.853 43.121 30.5413 42.9773C30.2327 42.8267 29.9534 42.6107 29.7034 42.3294C29.4534 42.048 29.2504 41.703 29.0946 41.2944C28.9349 40.8758 28.8528 40.4733 28.8481 40.087C28.8434 39.7006 28.9061 39.3485 29.036 39.0306C29.1709 38.7109 29.3666 38.4308 29.623 38.1903C29.8776 37.9447 30.1843 37.7536 30.543 37.6167C30.9018 37.4799 31.2579 37.4183 31.6113 37.4319C31.9678 37.4386 32.3028 37.5163 32.6164 37.665C32.93 37.8137 33.2137 38.0337 33.4675 38.325C33.7213 38.6164 33.928 38.9713 34.0877 39.3899ZM32.6675 39.9316C32.5573 39.6426 32.4352 39.4123 32.3013 39.2408C32.1723 39.0673 32.0352 38.9398 31.8899 38.8582C31.7496 38.7748 31.6027 38.7338 31.4492 38.7352C31.2987 38.7298 31.1487 38.7557 30.9992 38.8127C30.8497 38.8697 30.7206 38.9503 30.612 39.0546C30.5014 39.1538 30.4216 39.2813 30.3726 39.437C30.3285 39.5908 30.3161 39.7753 30.3354 39.9906C30.3547 40.2058 30.4195 40.458 30.5297 40.747C30.6362 41.0261 30.7529 41.2498 30.8799 41.4183C31.0051 41.5817 31.1344 41.7037 31.2678 41.7841C31.4062 41.8626 31.5497 41.902 31.6982 41.9024C31.8468 41.9028 31.9958 41.8745 32.1453 41.8175C32.2948 41.7605 32.4248 41.6824 32.5354 41.5831C32.6509 41.482 32.7342 41.356 32.7851 41.2053C32.8411 41.0527 32.8613 40.8737 32.8458 40.6684C32.8334 40.4563 32.7739 40.2107 32.6675 39.9316ZM36.7964 35.6939C36.8327 35.5945 36.8817 35.4987 36.9436 35.4066C37.0105 35.3126 37.1237 35.2351 37.2832 35.1743L38.6286 34.6611L34.6178 48.255C34.5835 48.3595 34.5319 48.4562 34.4631 48.5452C34.3924 48.6293 34.2923 48.696 34.1627 48.7454L32.7874 49.27L36.7964 35.6939ZM42.3499 42.7115C42.5058 43.1201 42.5767 43.5155 42.5626 43.8976C42.5535 44.2778 42.479 44.6287 42.3391 44.9504C42.1973 45.267 41.9991 45.5481 41.7446 45.7936C41.4881 46.0341 41.1955 46.2171 40.8666 46.3426C40.5078 46.4794 40.1526 46.5435 39.8011 46.5349C39.4478 46.5213 39.1152 46.4426 38.8036 46.2989C38.495 46.1483 38.2157 45.9324 37.9656 45.651C37.7156 45.3696 37.5127 45.0246 37.3568 44.616C37.1972 44.1974 37.115 43.7949 37.1103 43.4086C37.1057 43.0222 37.1683 42.6701 37.2982 42.3523C37.4331 42.0325 37.6288 41.7524 37.8853 41.5119C38.1398 41.2664 38.4465 41.0752 38.8053 40.9383C39.1641 40.8015 39.5202 40.7399 39.8735 40.7535C40.23 40.7602 40.5625 40.8389 40.8711 40.9895C41.1847 41.1381 41.4684 41.3582 41.7222 41.6495C41.981 41.9389 42.1903 42.2929 42.3499 42.7115ZM40.9223 43.2561C40.812 42.967 40.6924 42.7358 40.5635 42.5624C40.4345 42.3889 40.2974 42.2614 40.1522 42.1799C40.0119 42.0964 39.8649 42.0554 39.7114 42.0569C39.5609 42.0515 39.4109 42.0773 39.2614 42.1343C39.1119 42.1913 38.9829 42.2719 38.8742 42.3762C38.7637 42.4754 38.6839 42.6029 38.6348 42.7586C38.5857 42.9143 38.5708 43.0998 38.5902 43.3151C38.6145 43.5284 38.6817 43.7796 38.792 44.0686C38.8984 44.3477 39.0126 44.5724 39.1347 44.7427C39.2617 44.9112 39.3945 45.0347 39.5329 45.1132C39.6713 45.1917 39.8147 45.2311 39.9633 45.2315C40.1119 45.2319 40.2609 45.2036 40.4104 45.1466C40.5599 45.0896 40.6899 45.0115 40.8005 44.9122C40.916 44.8111 40.9993 44.6851 41.0502 44.5344C41.1062 44.3818 41.1254 44.2003 41.108 43.9901C41.0906 43.7798 41.0287 43.5351 40.9223 43.2561ZM57.5753 33.6249C57.8776 34.4172 58.0258 35.2026 58.0202 35.9811C58.0177 36.7526 57.8713 37.4763 57.5811 38.1521C57.2909 38.8279 56.8626 39.4336 56.2964 39.9693C55.7282 40.4999 55.033 40.9221 54.2107 41.2357C53.3935 41.5474 52.5963 41.6945 51.819 41.677C51.0398 41.6546 50.3145 41.4889 49.6429 41.1799C48.9764 40.869 48.3828 40.4276 47.8621 39.8556C47.3395 39.2786 46.9271 38.594 46.6249 37.8017C46.3226 37.0093 46.1753 36.2265 46.1828 35.453C46.1884 34.6745 46.3363 33.9474 46.6266 33.2716C46.9218 32.5939 47.3535 31.9897 47.9216 31.4591C48.4879 30.9234 49.1797 30.4998 49.9969 30.188C50.5451 29.979 51.0855 29.847 51.6183 29.7922C52.1492 29.7324 52.6611 29.7427 53.1541 29.8229C53.6452 29.8982 54.1138 30.0419 54.5601 30.2542C55.0095 30.4595 55.4242 30.7237 55.8043 31.0468C56.1844 31.3699 56.523 31.7488 56.82 32.1835C57.1221 32.6162 57.3739 33.0967 57.5753 33.6249ZM55.5198 34.409C55.2936 33.816 55.0115 33.3157 54.6733 32.9081C54.3333 32.4955 53.9536 32.1808 53.5341 31.9641C53.1147 31.7473 52.6599 31.6325 52.1698 31.6197C51.6847 31.6049 51.178 31.6983 50.6498 31.8998C50.1216 32.1012 49.679 32.3699 49.3219 32.7059C48.9699 33.04 48.7071 33.4285 48.5335 33.8714C48.365 34.3124 48.2912 34.8001 48.3123 35.3343C48.3315 35.8635 48.4542 36.4246 48.6804 37.0176C48.9066 37.6106 49.1897 38.1134 49.5297 38.526C49.8678 38.9336 50.2466 39.2458 50.6661 39.4625C51.0886 39.6724 51.5424 39.7847 52.0275 39.7994C52.5176 39.8123 53.0268 39.718 53.555 39.5165C54.0832 39.315 54.5234 39.0473 54.8754 38.7132C55.2325 38.3772 55.4962 37.9912 55.6667 37.5552C55.8352 37.1142 55.9099 36.629 55.8907 36.0998C55.8696 35.5656 55.746 35.0019 55.5198 34.409ZM61.8605 38.1809L59.4656 31.9022L58.7605 32.0513C58.6045 32.0765 58.4684 32.0713 58.3521 32.0358C58.2389 31.9933 58.1566 31.9048 58.1053 31.7703L57.8174 31.0153L58.961 30.5791L58.7956 30.1456C58.6284 29.7071 58.543 29.2887 58.5395 28.8905C58.541 28.4903 58.6173 28.1216 58.7683 27.7843C58.9243 27.4451 59.1546 27.1432 59.4589 26.8787C59.7633 26.6142 60.1373 26.3974 60.5808 26.2282C60.9346 26.0933 61.2815 26.0151 61.6216 25.9939L61.9349 26.9275C61.9565 26.9992 61.9585 27.0641 61.9407 27.1223C61.9229 27.1804 61.8889 27.2334 61.8386 27.2811C61.7914 27.3219 61.7323 27.3616 61.6613 27.4001C61.5885 27.4335 61.5097 27.4664 61.425 27.4988C61.2057 27.5824 61.0184 27.6824 60.863 27.7987C60.7107 27.9082 60.5975 28.0456 60.5236 28.2108C60.4477 28.371 60.4144 28.5606 60.4238 28.7797C60.4362 28.9919 60.4966 29.24 60.6049 29.524L60.7475 29.8977L63.8046 28.7317L63.5452 28.0515C63.3779 27.6129 63.2925 27.1946 63.2891 26.7963C63.2906 26.3962 63.3668 26.0275 63.5179 25.6902C63.6739 25.351 63.9041 25.0491 64.2085 24.7846C64.5129 24.5201 64.8868 24.3032 65.3303 24.1341C65.5047 24.0676 65.6764 24.0163 65.8454 23.9804C66.0174 23.9376 66.1917 23.9083 66.3683 23.8923L66.677 24.8363C66.7221 24.9846 66.69 25.1024 66.5806 25.1898C66.4744 25.2703 66.339 25.3419 66.1745 25.4046C65.9553 25.4883 65.768 25.5883 65.6126 25.7046C65.4602 25.8141 65.3471 25.9514 65.2731 26.1166C65.1972 26.2769 65.164 26.4665 65.1733 26.6856C65.1857 26.8977 65.2461 27.1458 65.3544 27.4299L65.5911 28.0503L67.5794 27.2919L68.0811 28.6075L66.1527 29.343L68.5504 35.6293L66.7041 36.3335L64.3064 30.0472L61.309 31.1905L63.7067 37.4767L61.8605 38.1809Z" fill="#F9F9F9"/>
</svg>
