<svg width="20" height="20" viewBox="0 0 20 20" fill="none" xmlns="http://www.w3.org/2000/svg">
<g id="Group 182">
<circle id="Ellipse 94" cx="10" cy="10" r="10" fill="#EC8276"/>
<g id="Group 181">
<path id="Vector" d="M9.018 4.55288L4.15392 12.6731C4.05363 12.8468 4.00057 13.0437 4 13.2442C3.99944 13.4448 4.0514 13.642 4.15071 13.8162C4.25003 13.9904 4.39323 14.1356 4.56607 14.2373C4.73892 14.339 4.93538 14.3937 5.13592 14.3959H14.8641C15.0646 14.3937 15.2611 14.339 15.4339 14.2373C15.6068 14.1356 15.75 13.9904 15.8493 13.8162C15.9486 13.642 16.0006 13.4448 16 13.2442C15.9994 13.0437 15.9464 12.8468 15.8461 12.6731L10.982 4.55288C10.8796 4.3841 10.7355 4.24456 10.5635 4.14772C10.3915 4.05088 10.1974 4 10 4C9.8026 4 9.60854 4.05088 9.43653 4.14772C9.26452 4.24456 9.12037 4.3841 9.018 4.55288Z" stroke="white" stroke-linecap="round" stroke-linejoin="round"/>
<path id="Vector_2" d="M9.98047 7.50586V9.80295" stroke="white" stroke-linecap="round" stroke-linejoin="round"/>
<path id="Vector_3" d="M9.98047 12.0977H9.99157" stroke="white" stroke-linecap="round" stroke-linejoin="round"/>
</g>
</g>
</svg>
