<svg width="109" height="109" viewBox="0 0 109 109" fill="none" xmlns="http://www.w3.org/2000/svg">
<path d="M10.2188 71.5312L33.6492 48.1008C34.5981 47.1519 35.7246 46.3992 36.9644 45.8856C38.2042 45.3721 39.533 45.1077 40.875 45.1077C42.217 45.1077 43.5458 45.3721 44.7856 45.8856C46.0254 46.3992 47.1519 47.1519 48.1008 48.1008L71.5312 71.5312M64.7187 64.7187L71.118 58.3195C72.0669 57.3706 73.1934 56.6179 74.4332 56.1044C75.673 55.5908 77.0018 55.3265 78.3437 55.3265C79.6857 55.3265 81.0145 55.5908 82.2543 56.1044C83.4941 56.6179 84.6206 57.3706 85.5695 58.3195L98.7812 71.5312M17.0312 88.5625H91.9687C93.7755 88.5625 95.5083 87.8448 96.7859 86.5672C98.0635 85.2896 98.7812 83.5568 98.7812 81.75V27.25C98.7812 25.4432 98.0635 23.7104 96.7859 22.4328C95.5083 21.1552 93.7755 20.4375 91.9687 20.4375H17.0312C15.2245 20.4375 13.4917 21.1552 12.2141 22.4328C10.9365 23.7104 10.2188 25.4432 10.2188 27.25V81.75C10.2188 83.5568 10.9365 85.2896 12.2141 86.5672C13.4917 87.8448 15.2245 88.5625 17.0312 88.5625ZM64.7187 37.4687H64.7551V37.5051H64.7187V37.4687ZM66.4219 37.4687C66.4219 37.9204 66.2424 38.3536 65.923 38.673C65.6036 38.9924 65.1704 39.1719 64.7187 39.1719C64.2671 39.1719 63.8339 38.9924 63.5145 38.673C63.1951 38.3536 63.0156 37.9204 63.0156 37.4687C63.0156 37.0171 63.1951 36.5839 63.5145 36.2645C63.8339 35.9451 64.2671 35.7656 64.7187 35.7656C65.1704 35.7656 65.6036 35.9451 65.923 36.2645C66.2424 36.5839 66.4219 37.0171 66.4219 37.4687Z" stroke="#5BAA60" stroke-width="6.8125" stroke-linecap="round" stroke-linejoin="round"/>
</svg>
